<?xml version="1.0" encoding="UTF-8" standalone="no"?>
<!-- Created with Inkscape (http://www.inkscape.org/) -->

<svg
   version="1.1"
   id="svg198"
   width="25.287275"
   height="50.981575"
   viewBox="0 0 25.287275 50.981575"
   sodipodi:docname="C.svg"
   inkscape:version="1.2.1 (9c6d41e410, 2022-07-14)"
   xmlns:inkscape="http://www.inkscape.org/namespaces/inkscape"
   xmlns:sodipodi="http://sodipodi.sourceforge.net/DTD/sodipodi-0.dtd"
   xmlns="http://www.w3.org/2000/svg"
   xmlns:svg="http://www.w3.org/2000/svg">
  <defs
     id="defs202" />
  <sodipodi:namedview
     id="namedview200"
     pagecolor="#ffffff"
     bordercolor="#666666"
     borderopacity="1.0"
     inkscape:showpageshadow="2"
     inkscape:pageopacity="0.0"
     inkscape:pagecheckerboard="0"
     inkscape:deskcolor="#d1d1d1"
     showgrid="false"
     inkscape:zoom="17.824389"
     inkscape:cx="6.6201428"
     inkscape:cy="26.368365"
     inkscape:window-width="1920"
     inkscape:window-height="1011"
     inkscape:window-x="0"
     inkscape:window-y="32"
     inkscape:window-maximized="1"
     inkscape:current-layer="g204" />
  <g
     inkscape:groupmode="layer"
     inkscape:label="Image"
     id="g204"
     transform="translate(-236.79435,-129.70768)">
    <path
       style="fill:#000000;fill-opacity:1;stroke:none;stroke-width:1px;stroke-linecap:butt;stroke-linejoin:miter;stroke-opacity:1"
       d="m 239.44991,153.65581 1.94305,-17.84351 c 0.3357,-1.58976 1.02062,-2.28043 1.02062,-2.28043 l 3.66841,2.78385 -1.9229,16.63532 -3.1741,2.15486 z"
       id="path725"
       sodipodi:nodetypes="ccccccc" />
    <path
       style="fill:#000000;fill-opacity:1;stroke:none;stroke-width:1px;stroke-linecap:butt;stroke-linejoin:miter;stroke-opacity:1"
       d="m 242.74172,132.89369 3.77835,2.86905 7.04993,0.0202 3.14781,-3.87592 c 0,0 -0.465,-1.17819 -1.85911,-1.14117 l -8.91164,0.004 c -1.56019,-0.0218 -3.20534,2.12384 -3.20534,2.12384 z"
       id="path738"
       sodipodi:nodetypes="ccccccc" />
    <path
       style="fill:#000000;fill-opacity:1;stroke:none;stroke-width:1px;stroke-linecap:butt;stroke-linejoin:miter;stroke-opacity:1"
       d="m 238.78679,157.59551 -1.96205,17.82708 c -0.17723,1.78589 0.80261,2.82241 0.80261,2.82241 l 3.76991,-2.88436 1.96765,-17.07717 -2.54865,-2.27894 z"
       id="path740"
       sodipodi:nodetypes="ccccccc" />
    <path
       style="fill:#000000;fill-opacity:1;stroke:none;stroke-width:1px;stroke-linecap:butt;stroke-linejoin:miter;stroke-opacity:1"
       d="m 238.28067,178.77664 3.73003,-3.0666 6.56877,-0.0237 2.5866,4.00919 c 0,0 -0.65226,0.5724 -2.08326,0.52769 l -7.99525,-0.0275 c -2.01129,0.0517 -2.80689,-1.41903 -2.80689,-1.41903 z"
       id="path742"
       sodipodi:nodetypes="cccccccc" />
  </g>
</svg>
