<?xml version="1.0" encoding="UTF-8" standalone="no"?>
<!-- Created with Inkscape (http://www.inkscape.org/) -->

<svg
   version="1.1"
   id="svg198"
   width="25.287275"
   height="50.981575"
   viewBox="0 0 25.287275 50.981575"
   sodipodi:docname="7.svg"
   inkscape:version="1.2.1 (9c6d41e410, 2022-07-14)"
   xmlns:inkscape="http://www.inkscape.org/namespaces/inkscape"
   xmlns:sodipodi="http://sodipodi.sourceforge.net/DTD/sodipodi-0.dtd"
   xmlns="http://www.w3.org/2000/svg"
   xmlns:svg="http://www.w3.org/2000/svg">
  <defs
     id="defs202" />
  <sodipodi:namedview
     id="namedview200"
     pagecolor="#ffffff"
     bordercolor="#666666"
     borderopacity="1.0"
     inkscape:showpageshadow="2"
     inkscape:pageopacity="0.0"
     inkscape:pagecheckerboard="0"
     inkscape:deskcolor="#d1d1d1"
     showgrid="false"
     inkscape:zoom="12.603746"
     inkscape:cx="2.3009033"
     inkscape:cy="29.911742"
     inkscape:window-width="1920"
     inkscape:window-height="1011"
     inkscape:window-x="0"
     inkscape:window-y="32"
     inkscape:window-maximized="1"
     inkscape:current-layer="g204" />
  <g
     inkscape:groupmode="layer"
     inkscape:label="Image"
     id="g204"
     transform="translate(-236.79435,-129.70768)">
    <path
       style="fill:#000000;fill-opacity:1;stroke:none;stroke-width:1px;stroke-linecap:butt;stroke-linejoin:miter;stroke-opacity:1"
       d="m 253.90947,136.55813 -1.78263,16.55299 2.21993,2.18902 2.27387,-1.97961 1.76092,-16.44576 c 0.48176,-2.9163 -1.15085,-4.5223 -1.15085,-4.5223 z"
       id="path736"
       sodipodi:nodetypes="ccccccc" />
    <path
       style="fill:#000000;fill-opacity:1;stroke:none;stroke-width:1px;stroke-linecap:butt;stroke-linejoin:miter;stroke-opacity:1"
       d="m 242.74172,132.89369 3.77835,2.86905 7.04993,0.0202 3.14781,-3.87592 c 0,0 -0.465,-1.17819 -1.85911,-1.14117 l -8.91164,0.004 c -1.56019,-0.0218 -3.20534,2.12384 -3.20534,2.12384 z"
       id="path738"
       sodipodi:nodetypes="ccccccc" />
    <path
       style="fill:#000000;fill-opacity:1;stroke:none;stroke-width:1px;stroke-linecap:butt;stroke-linejoin:miter;stroke-opacity:1"
       d="m 249.28283,175.38161 2.01492,-17.14083 2.88922,-2.26797 c -0.005,-0.0163 1.73227,2.49104 1.73227,2.49104 l -2.20639,18.18399 c -0.30404,1.68148 -1.90683,2.69571 -1.90683,2.69571 z"
       id="path744"
       sodipodi:nodetypes="ccccccc" />
  </g>
</svg>
