<?xml version="1.0" encoding="UTF-8" standalone="no"?>
<!-- Created with Inkscape (http://www.inkscape.org/) -->

<svg
   version="1.1"
   id="svg198"
   width="25.287275"
   height="50.981575"
   viewBox="0 0 25.287275 50.981575"
   sodipodi:docname="B.svg"
   inkscape:version="1.2.1 (9c6d41e410, 2022-07-14)"
   xmlns:inkscape="http://www.inkscape.org/namespaces/inkscape"
   xmlns:sodipodi="http://sodipodi.sourceforge.net/DTD/sodipodi-0.dtd"
   xmlns="http://www.w3.org/2000/svg"
   xmlns:svg="http://www.w3.org/2000/svg">
  <defs
     id="defs202" />
  <sodipodi:namedview
     id="namedview200"
     pagecolor="#ffffff"
     bordercolor="#666666"
     borderopacity="1.0"
     inkscape:showpageshadow="2"
     inkscape:pageopacity="0.0"
     inkscape:pagecheckerboard="0"
     inkscape:deskcolor="#d1d1d1"
     showgrid="false"
     inkscape:zoom="17.824389"
     inkscape:cx="6.6201428"
     inkscape:cy="40.281886"
     inkscape:window-width="1920"
     inkscape:window-height="1011"
     inkscape:window-x="0"
     inkscape:window-y="32"
     inkscape:window-maximized="1"
     inkscape:current-layer="g204" />
  <g
     inkscape:groupmode="layer"
     inkscape:label="Image"
     id="g204"
     transform="translate(-236.79435,-129.70768)">
    <path
       style="fill:#000000;fill-opacity:1;stroke:none;stroke-width:1px;stroke-linecap:butt;stroke-linejoin:miter;stroke-opacity:1"
       d="m 239.44991,153.65581 1.94305,-17.84351 c 0.3357,-1.58976 1.02062,-2.28043 1.02062,-2.28043 l 3.66841,2.78385 -1.9229,16.63532 -3.1741,2.15486 z"
       id="path725"
       sodipodi:nodetypes="ccccccc" />
    <path
       style="fill:#000000;fill-opacity:1;stroke:none;stroke-width:1px;stroke-linecap:butt;stroke-linejoin:miter;stroke-opacity:1"
       d="m 253.84935,155.59463 -2.29019,-2.16459 -6.9956,-0.008 -3.26136,2.23217 2.64362,2.32998 6.80226,-0.0475 z"
       id="path734"
       sodipodi:nodetypes="ccccccc" />
    <path
       style="fill:#000000;fill-opacity:1;stroke:none;stroke-width:1px;stroke-linecap:butt;stroke-linejoin:miter;stroke-opacity:1"
       d="m 238.78679,157.59551 -1.96205,17.82708 c -0.17723,1.78589 0.80261,2.82241 0.80261,2.82241 l 3.76991,-2.88436 1.96765,-17.07717 -2.54865,-2.27894 z"
       id="path740"
       sodipodi:nodetypes="ccccccc" />
    <path
       style="fill:#000000;fill-opacity:1;stroke:none;stroke-width:1px;stroke-linecap:butt;stroke-linejoin:miter;stroke-opacity:1"
       d="m 238.28067,178.77664 3.73003,-3.0666 6.56877,-0.0237 2.5866,4.00919 c 0,0 -0.65226,0.5724 -2.08326,0.52769 l -7.99525,-0.0275 c -2.01129,0.0517 -2.80689,-1.41903 -2.80689,-1.41903 z"
       id="path742"
       sodipodi:nodetypes="cccccccc" />
    <path
       style="fill:#000000;fill-opacity:1;stroke:none;stroke-width:1px;stroke-linecap:butt;stroke-linejoin:miter;stroke-opacity:1"
       d="m 249.28283,175.38161 2.01492,-17.14083 2.88922,-2.26797 c -0.005,-0.0163 1.73227,2.49104 1.73227,2.49104 l -2.20639,18.18399 c -0.30404,1.68148 -1.90683,2.69571 -1.90683,2.69571 z"
       id="path744"
       sodipodi:nodetypes="ccccccc" />
  </g>
</svg>
